<svg xmlns="http://www.w3.org/2000/svg" width="1200" height="640" viewBox="0 0 1200 640">
  <rect width="100%" height="100%" fill="white"/>

  <line x1="70" y1="170" x2="308" y2="170" stroke="#333333" stroke-width="5"/>
  <polygon points="308,160 328,170 308,180" fill="#333333"/>

  <line x1="70" y1="260" x2="308" y2="260" stroke="#333333" stroke-width="5"/>
  <polygon points="308,250 328,260 308,270" fill="#333333"/>

  <line x1="70" y1="350" x2="308" y2="350" stroke="#333333" stroke-width="5"/>
  <polygon points="308,340 328,350 308,360" fill="#333333"/>

  <line x1="70" y1="440" x2="308" y2="440" stroke="#333333" stroke-width="5"/>
  <polygon points="308,430 328,440 308,450" fill="#333333"/>

  <line x1="862" y1="305" x2="1040" y2="305" stroke="#333333" stroke-width="5"/>
  <polygon points="1040,295 1060,305 1040,315" fill="#333333"/>

  <text x="125" y="145" font-family="Arial, Helvetica, sans-serif" font-size="24" fill="#141414">INPUT</text>
  <text x="112" y="235" font-family="Arial, Helvetica, sans-serif" font-size="24" fill="#141414">CUTOFF</text>
  <text x="78" y="325" font-family="Arial, Helvetica, sans-serif" font-size="24" fill="#141414">CUTOFF_MOD</text>
  <text x="55" y="415" font-family="Arial, Helvetica, sans-serif" font-size="24" fill="#141414">RESONANCE_MOD</text>
  <text x="900" y="280" font-family="Arial, Helvetica, sans-serif" font-size="24" fill="#141414">OUTPUT</text>

  <rect x="340" y="70" width="520" height="400" rx="20" ry="20" fill="#E8F0FF" stroke="#3C5AB4" stroke-width="4"/>
  <text x="600" y="295" text-anchor="middle" font-family="Arial, Helvetica, sans-serif" font-size="40" font-weight="700" fill="#141414">AudioFilter</text>

  <line x1="90" y1="500" x2="1110" y2="500" stroke="#D6DCEB" stroke-width="3"/>
  <text x="600" y="525" text-anchor="middle" font-family="Arial, Helvetica, sans-serif" font-size="22" font-weight="700" fill="#5B6785">Internal Structure Schematic</text>

  <text x="600" y="585" text-anchor="middle" font-family="Arial, Helvetica, sans-serif" font-size="28" font-weight="700" fill="#141414">24 dB Low-Pass Structure</text>

  <g transform="translate(110,560)">
    <rect x="0" y="-78" width="980" height="62" rx="16" ry="16" fill="#F7F9FC" stroke="#B9C4DD" stroke-width="2"/>
    <rect x="30" y="-63" width="135" height="32" rx="12" ry="12" fill="#DCE7FF" stroke="#8EA7E6" stroke-width="2"/>
    <rect x="215" y="-63" width="135" height="32" rx="12" ry="12" fill="#DCE7FF" stroke="#8EA7E6" stroke-width="2"/>
    <rect x="400" y="-63" width="135" height="32" rx="12" ry="12" fill="#DCE7FF" stroke="#8EA7E6" stroke-width="2"/>
    <rect x="585" y="-63" width="135" height="32" rx="12" ry="12" fill="#DCE7FF" stroke="#8EA7E6" stroke-width="2"/>
    <rect x="775" y="-70" width="190" height="46" rx="12" ry="12" fill="#FFE7D9" stroke="#E09A68" stroke-width="2"/>

    <line x1="165" y1="-47" x2="215" y2="-47" stroke="#5E6F9F" stroke-width="4"/>
    <polygon points="215,-55 229,-47 215,-39" fill="#5E6F9F"/>
    <line x1="350" y1="-47" x2="400" y2="-47" stroke="#5E6F9F" stroke-width="4"/>
    <polygon points="400,-55 414,-47 400,-39" fill="#5E6F9F"/>
    <line x1="535" y1="-47" x2="585" y2="-47" stroke="#5E6F9F" stroke-width="4"/>
    <polygon points="585,-55 599,-47 585,-39" fill="#5E6F9F"/>
    <line x1="720" y1="-47" x2="800" y2="-47" stroke="#5E6F9F" stroke-width="4"/>
    <polygon points="800,-55 814,-47 800,-39" fill="#5E6F9F"/>

    <path d="M 875 -16 C 875 8, 670 8, 670 -16" fill="none" stroke="#C96F3B" stroke-width="4"/>
    <polygon points="678,-20 666,-16 678,-12" fill="#C96F3B"/>

    <text x="98" y="-41" text-anchor="middle" font-family="Arial, Helvetica, sans-serif" font-size="20" fill="#141414">Stage 1</text>
    <text x="283" y="-41" text-anchor="middle" font-family="Arial, Helvetica, sans-serif" font-size="20" fill="#141414">Stage 2</text>
    <text x="468" y="-41" text-anchor="middle" font-family="Arial, Helvetica, sans-serif" font-size="20" fill="#141414">Stage 3</text>
    <text x="653" y="-41" text-anchor="middle" font-family="Arial, Helvetica, sans-serif" font-size="20" fill="#141414">Stage 4</text>
    <text x="870" y="-49" text-anchor="middle" font-family="Arial, Helvetica, sans-serif" font-size="18" fill="#141414">Resonance</text>
    <text x="870" y="-31" text-anchor="middle" font-family="Arial, Helvetica, sans-serif" font-size="18" fill="#141414">Feedback</text>
  </g>
</svg>
