<svg xmlns="http://www.w3.org/2000/svg" width="1200" height="580" viewBox="0 0 1200 580">
  <rect width="100%" height="100%" fill="white"/>

  <line x1="70" y1="140" x2="308" y2="140" stroke="#333333" stroke-width="5"/>
  <polygon points="308,130 328,140 308,150" fill="#333333"/>

  <line x1="70" y1="210" x2="308" y2="210" stroke="#333333" stroke-width="5"/>
  <polygon points="308,200 328,210 308,220" fill="#333333"/>

  <line x1="70" y1="280" x2="308" y2="280" stroke="#333333" stroke-width="5"/>
  <polygon points="308,270 328,280 308,290" fill="#333333"/>

  <line x1="862" y1="140" x2="1040" y2="140" stroke="#333333" stroke-width="5"/>
  <polygon points="1040,130 1060,140 1040,150" fill="#333333"/>

  <line x1="862" y1="210" x2="1040" y2="210" stroke="#333333" stroke-width="5"/>
  <polygon points="1040,200 1060,210 1040,220" fill="#333333"/>

  <line x1="862" y1="280" x2="1040" y2="280" stroke="#333333" stroke-width="5"/>
  <polygon points="1040,270 1060,280 1040,290" fill="#333333"/>

  <line x1="862" y1="350" x2="1040" y2="350" stroke="#333333" stroke-width="5"/>
  <polygon points="1040,340 1060,350 1040,360" fill="#333333"/>

  <line x1="862" y1="420" x2="1040" y2="420" stroke="#333333" stroke-width="5"/>
  <polygon points="1040,410 1060,420 1040,430" fill="#333333"/>

  <text x="120" y="115" font-family="Arial, Helvetica, sans-serif" font-size="24" fill="#141414">TRIG</text>
  <text x="120" y="185" font-family="Arial, Helvetica, sans-serif" font-size="24" fill="#141414">INTENSITY</text>
  <text x="120" y="255" font-family="Arial, Helvetica, sans-serif" font-size="24" fill="#141414">INHIBITION</text>

  <text x="900" y="115" font-family="Arial, Helvetica, sans-serif" font-size="24" fill="#141414">PLAYING</text>
  <text x="900" y="185" font-family="Arial, Helvetica, sans-serif" font-size="24" fill="#141414">COMPLETED</text>
  <text x="900" y="255" font-family="Arial, Helvetica, sans-serif" font-size="24" fill="#141414">ACTIVE</text>
  <text x="900" y="325" font-family="Arial, Helvetica, sans-serif" font-size="24" fill="#141414">RMS</text>
  <text x="900" y="395" font-family="Arial, Helvetica, sans-serif" font-size="24" fill="#141414">VOLUME</text>

  <rect x="340" y="70" width="520" height="440" rx="20" ry="20" fill="#E8F0FF" stroke="#3C5AB4" stroke-width="4"/>
  <text x="600.0" y="290.0" text-anchor="middle" font-family="Arial, Helvetica, sans-serif" font-size="40" font-weight="700" fill="#141414">EpiVoice</text>
</svg>
