<svg xmlns="http://www.w3.org/2000/svg" width="1200" height="510" viewBox="0 0 1200 510">
  <rect width="100%" height="100%" fill="white"/>

  <line x1="70" y1="255.0" x2="308" y2="255.0" stroke="#333333" stroke-width="5"/>
  <polygon points="308,245.0 328,255.0 308,265.0" fill="#333333"/>

  <line x1="862" y1="140" x2="1040" y2="140" stroke="#333333" stroke-width="5"/>
  <polygon points="1040,130 1060,140 1040,150" fill="#333333"/>

  <line x1="862" y1="210" x2="1040" y2="210" stroke="#333333" stroke-width="5"/>
  <polygon points="1040,200 1060,210 1040,220" fill="#333333"/>

  <line x1="862" y1="280" x2="1040" y2="280" stroke="#333333" stroke-width="5"/>
  <polygon points="1040,270 1060,280 1040,290" fill="#333333"/>

  <line x1="862" y1="350" x2="1040" y2="350" stroke="#333333" stroke-width="5"/>
  <polygon points="1040,340 1060,350 1040,360" fill="#333333"/>

  <text x="120" y="230.0" font-family="Arial, Helvetica, sans-serif" font-size="24" fill="#141414">INPUT</text>

  <text x="900" y="115" font-family="Arial, Helvetica, sans-serif" font-size="24" fill="#141414">OUTPUT</text>
  <text x="900" y="185" font-family="Arial, Helvetica, sans-serif" font-size="24" fill="#141414">WEIGHTS</text>
  <text x="900" y="255" font-family="Arial, Helvetica, sans-serif" font-size="24" fill="#141414">MEANS</text>
  <text x="900" y="325" font-family="Arial, Helvetica, sans-serif" font-size="24" fill="#141414">VARIANCES</text>

  <rect x="340" y="70" width="520" height="370" rx="20" ry="20" fill="#E8F0FF" stroke="#3C5AB4" stroke-width="4"/>
  <text x="600.0" y="255.0" text-anchor="middle" font-family="Arial, Helvetica, sans-serif" font-size="40" font-weight="700" fill="#141414">StaufferGrimson</text>
</svg>
