<svg xmlns="http://www.w3.org/2000/svg" width="1000" height="1000" viewBox="0 0 1000 1000">
  <defs>
    <marker id="arrow" viewBox="0 0 10 10" refX="9" refY="5" markerWidth="8" markerHeight="8" orient="auto-start-reverse">
      <path d="M 0 0 L 10 5 L 0 10 z" fill="#30343b"/>
    </marker>
    <style>
      .label { font-family: Arial, Helvetica, sans-serif; fill: #141414; }
      .small { font-size: 20px; }
      .medium { font-size: 24px; }
      .title { font-size: 42px; font-weight: 700; }
      .note { font-size: 17px; fill: #48515c; }
      .wire { stroke: #30343b; stroke-width: 4; fill: none; marker-end: url(#arrow); }
      .thin { stroke: #718096; stroke-width: 2; fill: none; marker-end: url(#arrow); }
      .box { fill: #eef4ff; stroke: #315aa8; stroke-width: 4; }
      .stage { fill: #ffffff; stroke: #8aa6d8; stroke-width: 2; }
    </style>
  </defs>

  <rect width="100%" height="100%" fill="#ffffff"/>

  <g transform="translate(0 175)">
  <rect x="300" y="45" width="410" height="580" rx="14" ry="14" class="box"/>
  <text x="505" y="102" text-anchor="middle" class="label title">Arbiter</text>

  <rect x="340" y="165" width="330" height="62" rx="8" ry="8" class="stage"/>
  <text x="505" y="191" text-anchor="middle" class="label medium">amplitudes</text>
  <text x="505" y="215" text-anchor="middle" class="label note">VALUE or candidate norm</text>

  <rect x="340" y="260" width="330" height="62" rx="8" ry="8" class="stage"/>
  <text x="505" y="286" text-anchor="middle" class="label medium">arbitrate</text>
  <text x="505" y="310" text-anchor="middle" class="label note">WTA, hysteresis, softmax, hierarchy</text>

  <rect x="340" y="355" width="330" height="62" rx="8" ry="8" class="stage"/>
  <text x="505" y="381" text-anchor="middle" class="label medium">smooth</text>
  <text x="505" y="405" text-anchor="middle" class="label note">alpha or switch_time</text>

  <rect x="340" y="450" width="330" height="62" rx="8" ry="8" class="stage"/>
  <text x="505" y="476" text-anchor="middle" class="label medium">normalize and mix</text>
  <text x="505" y="500" text-anchor="middle" class="label note">sum_i weight[i] * INPUT[i]</text>

  <line x1="505" y1="227" x2="505" y2="260" class="thin"/>
  <line x1="505" y1="322" x2="505" y2="355" class="thin"/>
  <line x1="505" y1="417" x2="505" y2="450" class="thin"/>

  <line x1="50" y1="235" x2="300" y2="235" class="wire"/>
  <text x="80" y="207" class="label medium">INPUT</text>
  <text x="80" y="260" class="label note">candidates: [n, ...]</text>
  <text x="80" y="284" class="label note">stack_inputs controls stacking</text>

  <line x1="50" y1="365" x2="300" y2="365" class="wire"/>
  <text x="80" y="337" class="label medium">VALUE</text>
  <text x="80" y="390" class="label note">optional scores: [n]</text>
  <text x="80" y="414" class="label note">stack_values controls stacking</text>

  <line x1="710" y1="150" x2="950" y2="150" class="wire"/>
  <text x="735" y="128" class="label medium">AMPLITUDES</text>

  <line x1="710" y1="240" x2="950" y2="240" class="wire"/>
  <text x="735" y="218" class="label medium">ARBITRATION</text>

  <line x1="710" y1="330" x2="950" y2="330" class="wire"/>
  <text x="735" y="308" class="label medium">SMOOTHED</text>

  <line x1="710" y1="420" x2="950" y2="420" class="wire"/>
  <text x="735" y="398" class="label medium">NORMALIZED</text>

  <line x1="710" y1="540" x2="950" y2="540" class="wire"/>
  <text x="735" y="518" class="label medium">OUTPUT</text>
  <text x="735" y="570" class="label note">shape: INPUT.shape[1:]</text>
  </g>
</svg>
