<?xml version="1.0" encoding="UTF-8"?>
<!DOCTYPE svg PUBLIC "-//W3C//DTD SVG 1.1//EN" "http://www.w3.org/Graphics/SVG/1.1/DTD/svg11.dtd">
<svg version="1.1" xmlns="http://www.w3.org/2000/svg" xmlns:xlink="http://www.w3.org/1999/xlink" x="0" y="0" width="181" height="181" viewBox="0, 0, 181, 181">
  <g id="Background">
    <path d="M42.52,85.039 L212.598,85.039 L212.598,255.118 L42.52,255.118 L42.52,85.039 z" fill="#000000" display="none"/>
    <path d="M42.52,85.039 L212.598,85.039 L212.598,255.118 L42.52,255.118 L42.52,85.039 z" fill-opacity="0" stroke="#000000" stroke-width="1" display="none"/>
    <g>
      <path d="M0,0 L180,0 L180,180 L0,180 L0,0 z" fill="#000000"/>
      <path d="M0,0 L180,0 L180,180 L0,180 L0,0 z" fill-opacity="0" stroke="#000000" stroke-width="2"/>
    </g>
  </g>
  <g id="EyeWhites">
    <path d="M32.504,74.268 L150.614,74.268 L150.614,116.787 L32.504,116.787 L32.504,74.268 z" fill="#FFFFFF"/>
    <path d="M32.504,74.268 L150.614,74.268 L150.614,116.787 L32.504,116.787 L32.504,74.268 z" fill-opacity="0" stroke="#000000" stroke-width="1"/>
  </g>
  <g id="Eyes">
    <g id="RightEye">
      <path d="M63.213,112.063 C54.08,112.063 46.677,104.66 46.677,95.528 C46.677,86.395 54.08,78.992 63.213,78.992 C72.345,78.992 79.748,86.395 79.748,95.528 C79.748,104.66 72.345,112.063 63.213,112.063 z" fill="#00AFFF" id="RightIris"/>
      <g id="RightNeoPixelRing">
        <path d="M55.261,86.48 C54.609,85.35 54.996,83.906 56.126,83.253 C57.256,82.601 58.701,82.988 59.353,84.118 C60.005,85.248 59.618,86.692 58.488,87.345 C57.358,87.997 55.914,87.61 55.261,86.48 z" fill="#00AFFF" id="led11"/>
        <path d="M51.803,91.668 C50.673,91.016 50.286,89.571 50.938,88.441 C51.591,87.311 53.035,86.924 54.165,87.576 C55.295,88.229 55.682,89.673 55.03,90.803 C54.377,91.933 52.933,92.32 51.803,91.668 z" fill="#00AFFF" id="led10"/>
        <path d="M51.402,93.165 C52.706,93.165 53.764,94.223 53.764,95.528 C53.764,96.832 52.706,97.89 51.402,97.89 C50.097,97.89 49.039,96.832 49.039,95.528 C49.039,94.223 50.097,93.165 51.402,93.165 z" fill="#00AFFF" id="led09"/>
        <path d="M54.165,103.479 C53.035,104.131 51.591,103.744 50.938,102.614 C50.286,101.484 50.673,100.04 51.803,99.387 C52.933,98.735 54.377,99.122 55.03,100.252 C55.682,101.382 55.295,102.827 54.165,103.479 z" fill="#00AFFF" id="led08"/>
        <path d="M55.261,104.575 C55.914,103.445 57.358,103.058 58.488,103.711 C59.618,104.363 60.005,105.808 59.353,106.937 C58.701,108.067 57.256,108.454 56.126,107.802 C54.996,107.15 54.609,105.705 55.261,104.575 z" fill="#00AFFF" id="led07"/>
        <path d="M60.85,107.339 C60.85,106.034 61.908,104.976 63.213,104.976 C64.517,104.976 65.575,106.034 65.575,107.339 C65.575,108.643 64.517,109.701 63.213,109.701 C61.908,109.701 60.85,108.643 60.85,107.339 z" fill="#00AFFF" id="led06"/>
        <path d="M67.072,106.158 C66.42,105.028 66.807,103.583 67.937,102.931 C69.067,102.279 70.512,102.666 71.164,103.796 C71.816,104.926 71.429,106.37 70.299,107.023 C69.169,107.675 67.725,107.288 67.072,106.158 z" fill="#00AFFF" id="led05"/>
        <path d="M72.26,103.479 C71.13,102.827 70.743,101.382 71.396,100.252 C72.048,99.122 73.493,98.735 74.622,99.387 C75.752,100.04 76.139,101.484 75.487,102.614 C74.835,103.744 73.39,104.131 72.26,103.479 z" fill="#00AFFF" id="led04"/>
        <path d="M75.024,93.165 C76.328,93.165 77.386,94.223 77.386,95.528 C77.386,96.832 76.328,97.89 75.024,97.89 C73.719,97.89 72.661,96.832 72.661,95.528 C72.661,94.223 73.719,93.165 75.024,93.165 z" fill="#00AFFF" id="led03"/>
        <path d="M74.622,91.668 C73.493,92.32 72.048,91.933 71.396,90.803 C70.743,89.673 71.13,88.229 72.26,87.576 C73.39,86.924 74.835,87.311 75.487,88.441 C76.139,89.571 75.752,91.016 74.622,91.668 z" fill="#00AFFF" id="led02"/>
        <path d="M67.072,84.118 C67.725,82.988 69.169,82.601 70.299,83.253 C71.429,83.906 71.816,85.35 71.164,86.48 C70.512,87.61 69.067,87.997 67.937,87.345 C66.807,86.692 66.42,85.248 67.072,84.118 z" fill="#00AFFF" id="led01"/>
        <path d="M60.85,83.717 C60.85,82.412 61.908,81.354 63.213,81.354 C64.517,81.354 65.575,82.412 65.575,83.717 C65.575,85.021 64.517,86.079 63.213,86.079 C61.908,86.079 60.85,85.021 60.85,83.717 z" fill="#00AFFF" id="led00"/>
      </g>
      <g id="RightPupil">
        <path d="M63.213,102.614 C59.299,102.614 56.126,99.441 56.126,95.528 C56.126,91.614 59.299,88.441 63.213,88.441 C67.126,88.441 70.299,91.614 70.299,95.528 C70.299,99.441 67.126,102.614 63.213,102.614 z" fill="#000000"/>
        <path d="M63.213,102.614 C59.299,102.614 56.126,99.441 56.126,95.528 C56.126,91.614 59.299,88.441 63.213,88.441 C67.126,88.441 70.299,91.614 70.299,95.528 C70.299,99.441 67.126,102.614 63.213,102.614 z" fill-opacity="0" stroke="#000000" stroke-width="1"/>
      </g>
    </g>
    <g id="LeftEye">
      <path d="M119.906,112.063 C110.773,112.063 103.37,104.66 103.37,95.528 C103.37,86.395 110.773,78.992 119.906,78.992 C129.038,78.992 136.441,86.395 136.441,95.528 C136.441,104.66 129.038,112.063 119.906,112.063 z" fill="#00AFFF" id="LeftIris"/>
      <g id="LeftNeoPixelRing">
        <path d="M111.954,86.48 C111.302,85.35 111.689,83.906 112.819,83.253 C113.949,82.601 115.393,82.988 116.046,84.118 C116.698,85.248 116.311,86.692 115.181,87.345 C114.051,87.997 112.607,87.61 111.954,86.48 z" fill="#00AFFF" id="led11"/>
        <path d="M108.496,91.668 C107.366,91.016 106.979,89.571 107.631,88.441 C108.283,87.311 109.728,86.924 110.858,87.576 C111.988,88.229 112.375,89.673 111.723,90.803 C111.07,91.933 109.626,92.32 108.496,91.668 z" fill="#00AFFF" id="led10"/>
        <path d="M108.095,93.165 C109.399,93.165 110.457,94.223 110.457,95.528 C110.457,96.832 109.399,97.89 108.095,97.89 C106.79,97.89 105.732,96.832 105.732,95.528 C105.732,94.223 106.79,93.165 108.095,93.165 z" fill="#00AFFF" id="led09"/>
        <path d="M110.858,103.479 C109.728,104.131 108.283,103.744 107.631,102.614 C106.979,101.484 107.366,100.04 108.496,99.387 C109.626,98.735 111.07,99.122 111.723,100.252 C112.375,101.382 111.988,102.827 110.858,103.479 z" fill="#00AFFF" id="led08"/>
        <path d="M111.954,104.575 C112.607,103.445 114.051,103.058 115.181,103.711 C116.311,104.363 116.698,105.808 116.046,106.937 C115.393,108.067 113.949,108.454 112.819,107.802 C111.689,107.15 111.302,105.705 111.954,104.575 z" fill="#00AFFF" id="led07"/>
        <path d="M117.543,107.339 C117.543,106.034 118.601,104.976 119.906,104.976 C121.21,104.976 122.268,106.034 122.268,107.339 C122.268,108.643 121.21,109.701 119.906,109.701 C118.601,109.701 117.543,108.643 117.543,107.339 z" fill="#00AFFF" id="led06"/>
        <path d="M123.765,106.158 C123.113,105.028 123.5,103.583 124.63,102.931 C125.76,102.279 127.204,102.666 127.857,103.796 C128.509,104.926 128.122,106.37 126.992,107.023 C125.862,107.675 124.418,107.288 123.765,106.158 z" fill="#00AFFF" id="led05"/>
        <path d="M128.953,103.479 C127.823,102.827 127.436,101.382 128.088,100.252 C128.741,99.122 130.185,98.735 131.315,99.387 C132.445,100.04 132.832,101.484 132.18,102.614 C131.528,103.744 130.083,104.131 128.953,103.479 z" fill="#00AFFF" id="led04"/>
        <path d="M131.717,93.165 C133.021,93.165 134.079,94.223 134.079,95.528 C134.079,96.832 133.021,97.89 131.717,97.89 C130.412,97.89 129.354,96.832 129.354,95.528 C129.354,94.223 130.412,93.165 131.717,93.165 z" fill="#00AFFF" id="led03"/>
        <path d="M131.315,91.668 C130.185,92.32 128.741,91.933 128.088,90.803 C127.436,89.673 127.823,88.229 128.953,87.576 C130.083,86.924 131.528,87.311 132.18,88.441 C132.832,89.571 132.445,91.016 131.315,91.668 z" fill="#00AFFF" id="led02"/>
        <path d="M123.765,84.118 C124.418,82.988 125.862,82.601 126.992,83.253 C128.122,83.906 128.509,85.35 127.857,86.48 C127.204,87.61 125.76,87.997 124.63,87.345 C123.5,86.692 123.113,85.248 123.765,84.118 z" fill="#00AFFF" id="led01"/>
        <path d="M117.543,83.717 C117.543,82.412 118.601,81.354 119.906,81.354 C121.21,81.354 122.268,82.412 122.268,83.717 C122.268,85.021 121.21,86.079 119.906,86.079 C118.601,86.079 117.543,85.021 117.543,83.717 z" fill="#00AFFF" id="led00"/>
      </g>
      <g id="LeftPupil">
        <path d="M119.906,102.614 C115.992,102.614 112.819,99.441 112.819,95.528 C112.819,91.614 115.992,88.441 119.906,88.441 C123.819,88.441 126.992,91.614 126.992,95.528 C126.992,99.441 123.819,102.614 119.906,102.614 z" fill="#000000"/>
        <path d="M119.906,102.614 C115.992,102.614 112.819,99.441 112.819,95.528 C112.819,91.614 115.992,88.441 119.906,88.441 C123.819,88.441 126.992,91.614 126.992,95.528 C126.992,99.441 123.819,102.614 119.906,102.614 z" fill-opacity="0" stroke="#000000" stroke-width="1"/>
      </g>
    </g>
  </g>
  <g id="Front">
    <g>
      <path d="M116.654,8.126 C136.714,8.126 152.976,24.532 152.976,44.77 L152.976,127.386 C152.976,147.623 136.714,164.03 116.654,164.03 L66.464,164.03 C46.404,164.03 30.142,147.623 30.142,127.386 L30.142,44.77 C30.142,24.532 46.404,8.126 66.464,8.126 L116.654,8.126 z M132.556,76.63 L109.617,76.63 C102.253,76.63 96.283,82.599 96.283,89.963 L96.283,101.092 C96.283,108.456 102.253,114.425 109.617,114.425 L132.556,114.425 C139.92,114.425 145.89,108.456 145.89,101.092 L145.89,89.963 C145.89,82.599 139.92,76.63 132.556,76.63 z M73.501,76.63 L50.562,76.63 C43.198,76.63 37.228,82.599 37.228,89.963 L37.228,101.092 C37.228,108.456 43.198,114.425 50.562,114.425 L73.501,114.425 C80.865,114.425 86.835,108.456 86.835,101.092 L86.835,89.963 C86.835,82.599 80.865,76.63 73.501,76.63 z" fill="#000000"/>
      <path d="M116.654,8.126 C136.714,8.126 152.976,24.532 152.976,44.77 L152.976,127.386 C152.976,147.623 136.714,164.03 116.654,164.03 L66.464,164.03 C46.404,164.03 30.142,147.623 30.142,127.386 L30.142,44.77 C30.142,24.532 46.404,8.126 66.464,8.126 L116.654,8.126 z M132.556,76.63 L109.617,76.63 C102.253,76.63 96.283,82.599 96.283,89.963 L96.283,101.092 C96.283,108.456 102.253,114.425 109.617,114.425 L132.556,114.425 C139.92,114.425 145.89,108.456 145.89,101.092 L145.89,89.963 C145.89,82.599 139.92,76.63 132.556,76.63 z M73.501,76.63 L50.562,76.63 C43.198,76.63 37.228,82.599 37.228,89.963 L37.228,101.092 C37.228,108.456 43.198,114.425 50.562,114.425 L73.501,114.425 C80.865,114.425 86.835,108.456 86.835,101.092 L86.835,89.963 C86.835,82.599 80.865,76.63 73.501,76.63 z" fill-opacity="0" stroke="#00E0FF" stroke-width="1"/>
    </g>
    <path d="M76.795,146.315 C76.143,146.315 75.614,145.786 75.614,145.134 C75.614,144.482 76.143,143.953 76.795,143.953 C77.448,143.953 77.976,144.482 77.976,145.134 C77.976,145.786 77.448,146.315 76.795,146.315 z" fill-opacity="0" stroke="#00E0FF" stroke-width="1"/>
    <path d="M82.701,146.315 C82.048,146.315 81.52,145.786 81.52,145.134 C81.52,144.482 82.048,143.953 82.701,143.953 C83.353,143.953 83.882,144.482 83.882,145.134 C83.882,145.786 83.353,146.315 82.701,146.315 z" fill-opacity="0" stroke="#00E0FF" stroke-width="1"/>
    <path d="M88.606,146.315 C87.954,146.315 87.425,145.786 87.425,145.134 C87.425,144.482 87.954,143.953 88.606,143.953 C89.259,143.953 89.787,144.482 89.787,145.134 C89.787,145.786 89.259,146.315 88.606,146.315 z" fill-opacity="0" stroke="#00E0FF" stroke-width="1"/>
    <path d="M94.512,146.315 C93.86,146.315 93.331,145.786 93.331,145.134 C93.331,144.482 93.86,143.953 94.512,143.953 C95.164,143.953 95.693,144.482 95.693,145.134 C95.693,145.786 95.164,146.315 94.512,146.315 z" fill-opacity="0" stroke="#00E0FF" stroke-width="1"/>
    <path d="M100.417,146.315 C99.765,146.315 99.236,145.786 99.236,145.134 C99.236,144.482 99.765,143.953 100.417,143.953 C101.07,143.953 101.598,144.482 101.598,145.134 C101.598,145.786 101.07,146.315 100.417,146.315 z" fill-opacity="0" stroke="#00E0FF" stroke-width="1"/>
    <path d="M106.323,146.315 C105.671,146.315 105.142,145.786 105.142,145.134 C105.142,144.482 105.671,143.953 106.323,143.953 C106.975,143.953 107.504,144.482 107.504,145.134 C107.504,145.786 106.975,146.315 106.323,146.315 z" fill-opacity="0" stroke="#00E0FF" stroke-width="1"/>
    <path d="M76.795,136.866 C76.143,136.866 75.614,136.337 75.614,135.685 C75.614,135.033 76.143,134.504 76.795,134.504 C77.448,134.504 77.976,135.033 77.976,135.685 C77.976,136.337 77.448,136.866 76.795,136.866 z" fill-opacity="0" stroke="#00E0FF" stroke-width="1"/>
    <path d="M82.701,136.866 C82.048,136.866 81.52,136.337 81.52,135.685 C81.52,135.033 82.048,134.504 82.701,134.504 C83.353,134.504 83.882,135.033 83.882,135.685 C83.882,136.337 83.353,136.866 82.701,136.866 z" fill-opacity="0" stroke="#00E0FF" stroke-width="1"/>
    <path d="M88.606,136.866 C87.954,136.866 87.425,136.337 87.425,135.685 C87.425,135.033 87.954,134.504 88.606,134.504 C89.259,134.504 89.787,135.033 89.787,135.685 C89.787,136.337 89.259,136.866 88.606,136.866 z" fill-opacity="0" stroke="#00E0FF" stroke-width="1"/>
    <path d="M94.512,136.866 C93.86,136.866 93.331,136.337 93.331,135.685 C93.331,135.033 93.86,134.504 94.512,134.504 C95.164,134.504 95.693,135.033 95.693,135.685 C95.693,136.337 95.164,136.866 94.512,136.866 z" fill-opacity="0" stroke="#00E0FF" stroke-width="1"/>
    <path d="M100.417,136.866 C99.765,136.866 99.236,136.337 99.236,135.685 C99.236,135.033 99.765,134.504 100.417,134.504 C101.07,134.504 101.598,135.033 101.598,135.685 C101.598,136.337 101.07,136.866 100.417,136.866 z" fill-opacity="0" stroke="#00E0FF" stroke-width="1"/>
    <path d="M106.323,136.866 C105.671,136.866 105.142,136.337 105.142,135.685 C105.142,135.033 105.671,134.504 106.323,134.504 C106.975,134.504 107.504,135.033 107.504,135.685 C107.504,136.337 106.975,136.866 106.323,136.866 z" fill-opacity="0" stroke="#00E0FF" stroke-width="1"/>
    <g>
      <path d="M152.976,64.819 L162.425,64.819 L162.425,126.236 L152.976,126.236 L152.976,64.819 z" fill="#000000"/>
      <path d="M152.976,64.819 L162.425,64.819 L162.425,126.236 L152.976,126.236 L152.976,64.819 z" fill-opacity="0" stroke="#00E0FF" stroke-width="1"/>
    </g>
    <g>
      <path d="M20.693,64.819 L30.142,64.819 L30.142,126.236 L20.693,126.236 L20.693,64.819 z" fill="#000000"/>
      <path d="M20.693,64.819 L30.142,64.819 L30.142,126.236 L20.693,126.236 L20.693,64.819 z" fill-opacity="0" stroke="#00E0FF" stroke-width="1"/>
    </g>
    <g>
      <path d="M162.425,67.181 L167.15,71.906 L167.15,119.15 L162.425,123.874 L162.425,67.181 z" fill="#000000"/>
      <path d="M162.425,67.181 L167.15,71.906 L167.15,119.15 L162.425,123.874 L162.425,67.181 z" fill-opacity="0" stroke="#00E0FF" stroke-width="1"/>
    </g>
    <g>
      <path d="M15.969,71.906 C15.969,71.906 20.693,67.181 20.693,67.181 L20.693,123.874 L15.969,119.15 L15.969,71.906 z" fill="#000000"/>
      <path d="M15.969,71.906 C15.969,71.906 20.693,67.181 20.693,67.181 L20.693,123.874 L15.969,119.15 L15.969,71.906 z" fill-opacity="0" stroke="#00E0FF" stroke-width="1"/>
    </g>
  </g>
</svg>
