<svg xmlns="http://www.w3.org/2000/svg" width="1200" height="560" viewBox="0 0 1200 560">
  <rect width="100%" height="100%" fill="white"/>

  <line x1="70" y1="170" x2="308" y2="170" stroke="#333333" stroke-width="5"/>
  <polygon points="308,160 328,170 308,180" fill="#333333"/>

  <line x1="70" y1="260" x2="308" y2="260" stroke="#333333" stroke-width="5"/>
  <polygon points="308,250 328,260 308,270" fill="#333333"/>

  <line x1="862" y1="215" x2="1040" y2="215" stroke="#333333" stroke-width="5"/>
  <polygon points="1040,205 1060,215 1040,225" fill="#333333"/>

  <text x="140" y="145" font-family="Arial, Helvetica, sans-serif" font-size="24" fill="#141414">GATE</text>
  <text x="145" y="235" font-family="Arial, Helvetica, sans-serif" font-size="24" fill="#141414">TRIG</text>
  <text x="900" y="190" font-family="Arial, Helvetica, sans-serif" font-size="24" fill="#141414">OUTPUT</text>

  <rect x="340" y="70" width="520" height="290" rx="20" ry="20" fill="#E8F0FF" stroke="#3C5AB4" stroke-width="4"/>
  <text x="600" y="215" text-anchor="middle" font-family="Arial, Helvetica, sans-serif" font-size="40" font-weight="700" fill="#141414">ADSREnvelope</text>

  <text x="600" y="430" text-anchor="middle" font-family="Arial, Helvetica, sans-serif" font-size="28" font-weight="700" fill="#141414">ADSR Shape</text>

  <g transform="translate(170,455)">
    <line x1="0" y1="70" x2="860" y2="70" stroke="#9AA7C4" stroke-width="3"/>
    <line x1="0" y1="70" x2="0" y2="0" stroke="#9AA7C4" stroke-width="3"/>
    <polyline fill="none" stroke="#3C5AB4" stroke-width="5" stroke-linecap="round" stroke-linejoin="round"
      points="0,70 120,10 260,40 520,40 760,70 860,70"/>
    <line x1="120" y1="10" x2="120" y2="92" stroke="#C8D2E6" stroke-width="2" stroke-dasharray="6 6"/>
    <line x1="260" y1="40" x2="260" y2="92" stroke="#C8D2E6" stroke-width="2" stroke-dasharray="6 6"/>
    <line x1="520" y1="40" x2="520" y2="92" stroke="#C8D2E6" stroke-width="2" stroke-dasharray="6 6"/>
    <text x="60" y="102" text-anchor="middle" font-family="Arial, Helvetica, sans-serif" font-size="20" fill="#141414">Attack</text>
    <text x="190" y="102" text-anchor="middle" font-family="Arial, Helvetica, sans-serif" font-size="20" fill="#141414">Decay</text>
    <text x="390" y="102" text-anchor="middle" font-family="Arial, Helvetica, sans-serif" font-size="20" fill="#141414">Sustain</text>
    <text x="640" y="102" text-anchor="middle" font-family="Arial, Helvetica, sans-serif" font-size="20" fill="#141414">Release</text>
  </g>
</svg>
