<svg xmlns="http://www.w3.org/2000/svg" width="1200" height="560" viewBox="0 0 1200 560">
  <rect width="100%" height="100%" fill="white"/>

  <line x1="70" y1="250" x2="308" y2="250" stroke="#333333" stroke-width="5"/>
  <polygon points="308,240 328,250 308,260" fill="#333333"/>

  <line x1="862" y1="250" x2="1040" y2="250" stroke="#333333" stroke-width="5"/>
  <polygon points="1040,240 1060,250 1040,260" fill="#333333"/>

  <text x="120" y="225" font-family="Arial, Helvetica, sans-serif" font-size="24" fill="#141414">INPUT</text>
  <text x="900" y="225" font-family="Arial, Helvetica, sans-serif" font-size="24" fill="#141414">OUTPUT</text>

  <rect x="340" y="70" width="520" height="300" rx="20" ry="20" fill="#E8F0FF" stroke="#3C5AB4" stroke-width="4"/>
  <text x="600" y="250" text-anchor="middle" font-family="Arial, Helvetica, sans-serif" font-size="40" font-weight="700" fill="#141414">AudioDelay</text>

  <text x="600" y="430" text-anchor="middle" font-family="Arial, Helvetica, sans-serif" font-size="28" font-weight="700" fill="#141414">Single Tap With Feedback And Tone Control</text>

  <g transform="translate(120,455)">
    <rect x="0" y="0" width="960" height="70" rx="16" ry="16" fill="#F7F9FC" stroke="#B9C4DD" stroke-width="2"/>
    <rect x="40" y="19" width="160" height="32" rx="12" ry="12" fill="#EAF1FF" stroke="#8EA7E6" stroke-width="2"/>
    <rect x="280" y="19" width="190" height="32" rx="12" ry="12" fill="#EAF1FF" stroke="#8EA7E6" stroke-width="2"/>
    <rect x="550" y="19" width="160" height="32" rx="12" ry="12" fill="#EAF1FF" stroke="#8EA7E6" stroke-width="2"/>
    <rect x="790" y="19" width="120" height="32" rx="12" ry="12" fill="#FFE7D9" stroke="#E09A68" stroke-width="2"/>

    <line x1="200" y1="35" x2="280" y2="35" stroke="#5E6F9F" stroke-width="4"/>
    <polygon points="280,27 294,35 280,43" fill="#5E6F9F"/>
    <line x1="470" y1="35" x2="550" y2="35" stroke="#5E6F9F" stroke-width="4"/>
    <polygon points="550,27 564,35 550,43" fill="#5E6F9F"/>
    <line x1="710" y1="35" x2="790" y2="35" stroke="#5E6F9F" stroke-width="4"/>
    <polygon points="790,27 804,35 790,43" fill="#5E6F9F"/>

    <path d="M 850 19 C 850 -16, 365 -16, 365 19" fill="none" stroke="#C96F3B" stroke-width="4"/>
    <polygon points="373,15 361,19 373,23" fill="#C96F3B"/>

    <text x="120" y="41" text-anchor="middle" font-family="Arial, Helvetica, sans-serif" font-size="20" fill="#141414">Dry Signal</text>
    <text x="375" y="41" text-anchor="middle" font-family="Arial, Helvetica, sans-serif" font-size="20" fill="#141414">Delay Buffer</text>
    <text x="630" y="41" text-anchor="middle" font-family="Arial, Helvetica, sans-serif" font-size="20" fill="#141414">Low-Pass</text>
    <text x="850" y="41" text-anchor="middle" font-family="Arial, Helvetica, sans-serif" font-size="20" fill="#141414">Feedback</text>
  </g>
</svg>
