<svg xmlns="http://www.w3.org/2000/svg" width="1200" height="930" viewBox="0 0 1200 930">
  <rect width="100%" height="100%" fill="white"/>

  <line x1="70" y1="465.0" x2="308" y2="465.0" stroke="#333333" stroke-width="5"/>
  <polygon points="308,455.0 328,465.0 308,475.0" fill="#333333"/>

  <line x1="862" y1="140" x2="1040" y2="140" stroke="#333333" stroke-width="5"/>
  <polygon points="1040,130 1060,140 1040,150" fill="#333333"/>

  <line x1="862" y1="210" x2="1040" y2="210" stroke="#333333" stroke-width="5"/>
  <polygon points="1040,200 1060,210 1040,220" fill="#333333"/>

  <line x1="862" y1="280" x2="1040" y2="280" stroke="#333333" stroke-width="5"/>
  <polygon points="1040,270 1060,280 1040,290" fill="#333333"/>

  <line x1="862" y1="350" x2="1040" y2="350" stroke="#333333" stroke-width="5"/>
  <polygon points="1040,340 1060,350 1040,360" fill="#333333"/>

  <line x1="862" y1="420" x2="1040" y2="420" stroke="#333333" stroke-width="5"/>
  <polygon points="1040,410 1060,420 1040,430" fill="#333333"/>

  <line x1="862" y1="490" x2="1040" y2="490" stroke="#333333" stroke-width="5"/>
  <polygon points="1040,480 1060,490 1040,500" fill="#333333"/>

  <line x1="862" y1="560" x2="1040" y2="560" stroke="#333333" stroke-width="5"/>
  <polygon points="1040,550 1060,560 1040,570" fill="#333333"/>

  <line x1="862" y1="630" x2="1040" y2="630" stroke="#333333" stroke-width="5"/>
  <polygon points="1040,620 1060,630 1040,640" fill="#333333"/>

  <line x1="862" y1="700" x2="1040" y2="700" stroke="#333333" stroke-width="5"/>
  <polygon points="1040,690 1060,700 1040,710" fill="#333333"/>

  <line x1="862" y1="770" x2="1040" y2="770" stroke="#333333" stroke-width="5"/>
  <polygon points="1040,760 1060,770 1040,780" fill="#333333"/>

  <text x="120" y="440.0" font-family="Arial, Helvetica, sans-serif" font-size="24" fill="#141414">INPUT</text>

  <text x="900" y="115" font-family="Arial, Helvetica, sans-serif" font-size="24" fill="#141414">OUTPUT</text>
  <text x="900" y="185" font-family="Arial, Helvetica, sans-serif" font-size="24" fill="#141414">OUTPUT1</text>
  <text x="900" y="255" font-family="Arial, Helvetica, sans-serif" font-size="24" fill="#141414">OUTPUT2</text>
  <text x="900" y="325" font-family="Arial, Helvetica, sans-serif" font-size="24" fill="#141414">OUTPUT3</text>
  <text x="900" y="395" font-family="Arial, Helvetica, sans-serif" font-size="24" fill="#141414">OUTPUT4</text>
  <text x="900" y="465" font-family="Arial, Helvetica, sans-serif" font-size="24" fill="#141414">OUTPUT5</text>
  <text x="900" y="535" font-family="Arial, Helvetica, sans-serif" font-size="24" fill="#141414">OUTPUT6</text>
  <text x="900" y="605" font-family="Arial, Helvetica, sans-serif" font-size="24" fill="#141414">OUTPUT7</text>
  <text x="900" y="675" font-family="Arial, Helvetica, sans-serif" font-size="24" fill="#141414">OUTPUT8</text>
  <text x="900" y="745" font-family="Arial, Helvetica, sans-serif" font-size="24" fill="#141414">OUTPUT9</text>

  <rect x="340" y="70" width="520" height="790" rx="20" ry="20" fill="#E8F0FF" stroke="#3C5AB4" stroke-width="4"/>
  <text x="600.0" y="465.0" text-anchor="middle" font-family="Arial, Helvetica, sans-serif" font-size="40" font-weight="700" fill="#141414">KernelTestModule</text>
</svg>
